<?xml version="1.0" encoding="utf-8"?>
<svg viewBox="0 0 262.51 73.69" xmlns="http://www.w3.org/2000/svg">
  <defs>
    <style>
      .a, .b {
        fill: #fff;
      }

      .b {
        fill-rule: evenodd;
      }
    </style>
  </defs>
  <g>
    <path class="a" d="M11.3,41.89V23.81H16V42.3a13.87,13.87,0,0,1-.73,4.9A5.19,5.19,0,0,1,12.83,50a10.25,10.25,0,0,1-4.78.93,12.19,12.19,0,0,1-3.88-.53,5.4,5.4,0,0,1-2.45-1.59A6.34,6.34,0,0,1,.4,46.16,16,16,0,0,1,0,42.3V23.81H4.71V41.89a9.31,9.31,0,0,0,.61,3.75Q5.94,47,8.08,47c1.37,0,2.25-.43,2.64-1.31a9.51,9.51,0,0,0,.58-3.76"/>
    <path class="a" d="M25.6,50.31H20.89V23.81h9.62a5.27,5.27,0,0,1,3.43,1.06,5.83,5.83,0,0,1,1.89,2.75,12,12,0,0,1,.56,3.74A11,11,0,0,1,35.83,35,5.61,5.61,0,0,1,34,37.64a8,8,0,0,1-5.29,1.6H25.6Zm0-22.59v7.61h2.53a3.33,3.33,0,0,0,2.54-.93,4.65,4.65,0,0,0,.88-3.18A5,5,0,0,0,31.16,29,2,2,0,0,0,30,28a7.26,7.26,0,0,0-2.23-.26Z"/>
    <polygon class="a" points="38.22 27.72 38.22 23.81 53.93 23.81 53.93 27.72 48.44 27.72 48.44 50.31 43.73 50.31 43.73 27.72 38.22 27.72"/>
    <path class="a" d="M56.86,38.73V35a48.22,48.22,0,0,1,.37-5.06,10.64,10.64,0,0,1,1.06-3.49A5.67,5.67,0,0,1,60.73,24a9.54,9.54,0,0,1,4.37-.85,9.55,9.55,0,0,1,4.38.86,5.54,5.54,0,0,1,2.43,2.38,10.82,10.82,0,0,1,1,3.48A48.22,48.22,0,0,1,73.33,35v3.77a35.35,35.35,0,0,1-.5,6.74,6.67,6.67,0,0,1-2.28,4c-1.19,1-3,1.49-5.45,1.49a9.77,9.77,0,0,1-4.46-.87,5.52,5.52,0,0,1-2.48-2.46,11,11,0,0,1-1.06-3.67,46.78,46.78,0,0,1-.24-5.21m4.84-4.89v7.35a16.29,16.29,0,0,0,.21,2.73,4.32,4.32,0,0,0,1,2.14,2.73,2.73,0,0,0,2.23.9,2.62,2.62,0,0,0,2.8-1.71,14.1,14.1,0,0,0,.59-4.47V34a16.53,16.53,0,0,0-.62-4.87,3,3,0,0,0-5.52-.33,11.12,11.12,0,0,0-.65,4.07Z"/>
    <path class="a" d="M91.67,23.81,94.19,37.5c.12.59.22,1.23.29,1.91s.17,1.53.28,2.56.2,2,.28,2.83.14,1.58.2,2.14h.06c0-.41.08-.74.1-1s0-.56.07-.86c.18-2.59.42-4.85.7-6.8l1.89-14.46h4.88l-4.68,26.5H92.61L90.72,39.86c-.15-.93-.27-1.75-.35-2.44s-.16-1.35-.22-2S90,34.23,90,33.67s-.14-1.31-.25-2.25h-.07c-.07.71-.15,1.47-.23,2.28s-.16,1.51-.22,2.09S89.07,37,89,37.68s-.2,1.4-.34,2.18L87,50.31H81.31L76.5,23.81h4.87l2.12,14.46c.28,1.78.51,4,.71,6.8,0,.41.09,1,.13,1.87h.07c.06-.56.14-1.34.23-2.31s.19-1.92.29-2.83.2-1.74.29-2.45.18-1.33.27-1.85l2.28-13.69Z"/>
    <path class="a" d="M117.6,29V23.81h4.72v26.5H117.4l-3.66-9.44a95.78,95.78,0,0,1-3.37-10.52h-.06q.36,4.73.51,7.55c.08,1.77.14,3.15.18,4.12s0,2.08,0,3.32v5h-4.72V23.81h4.88l3.66,9.65A91.6,91.6,0,0,1,118.24,44h.07q-.28-4.09-.46-7.51c-.09-1.74-.15-3.22-.19-4.45s-.06-2.22-.06-3"/>
    <path class="a" d="M147.27,41.89V23.81H152V42.3a13.89,13.89,0,0,1-.72,4.9A5.25,5.25,0,0,1,148.79,50a10.22,10.22,0,0,1-4.78.93,12.13,12.13,0,0,1-3.87-.53,5.48,5.48,0,0,1-2.46-1.59,6.22,6.22,0,0,1-1.31-2.66A16,16,0,0,1,136,42.3V23.81h4.72V41.89a9.13,9.13,0,0,0,.61,3.75q.6,1.32,2.76,1.32c1.36,0,2.24-.43,2.63-1.31a9.48,9.48,0,0,0,.59-3.76"/>
    <path class="a" d="M162.34,38.9h-.84V50.31h-4.72V23.81h8.92A8.4,8.4,0,0,1,171,25.28c1.28,1,1.92,2.6,1.92,4.88a10,10,0,0,1-.85,4.33,3.65,3.65,0,0,1-3,2.07v.07a4.62,4.62,0,0,1,2.16.84,3.45,3.45,0,0,1,1.13,1.65,7.39,7.39,0,0,1,.34,2.31v1.14c0,4.37.33,6.79,1,7.24v.5h-5.18A12.06,12.06,0,0,1,168.2,49q-.09-.72-.15-1.65c0-.62-.05-1.32-.06-2.11s0-1.33,0-1.62a14.48,14.48,0,0,0-.29-2.94,1.82,1.82,0,0,0-1.32-1.4A7.94,7.94,0,0,0,164.6,39c-.6,0-1.35-.05-2.26-.05m-.84-11.18V35h3.69a2.75,2.75,0,0,0,2-1,4.31,4.31,0,0,0,.76-2.8,3.87,3.87,0,0,0-.73-2.77,3.23,3.23,0,0,0-2.22-.73Z"/>
    <path class="a" d="M186,50.31h-8.31V23.81h7.6a11.34,11.34,0,0,1,3.17.37,4.16,4.16,0,0,1,2.18,1.58,5.22,5.22,0,0,1,1,2.06,12.22,12.22,0,0,1,.26,2.7,8.5,8.5,0,0,1-.64,3.45,4.06,4.06,0,0,1-2.4,2.11v.08q3.68.51,3.68,6.14a13.84,13.84,0,0,1-.33,3.25,8.66,8.66,0,0,1-1.34,2.76,4.74,4.74,0,0,1-2,1.51,7.42,7.42,0,0,1-2.87.49m-3.6-15.78h.87a10.71,10.71,0,0,0,2.05-.16,2.08,2.08,0,0,0,1.3-.78,2.55,2.55,0,0,0,.4-1.11,10.6,10.6,0,0,0,.11-1.76,3.9,3.9,0,0,0-.51-2.27,2.54,2.54,0,0,0-2-.73h-2.18Zm0,11.9h2.05a4,4,0,0,0,1.76-.29c1-.44,1.45-1.66,1.45-3.66a5.4,5.4,0,0,0-.68-3.15c-.45-.59-1.38-.89-2.78-.89h-1.8Z"/>
    <path class="a" d="M199.85,50.31h-5.06l6-26.5h6.36l5.72,26.5h-5.05l-1.25-6.69h-5.51Zm3.39-18.12-1.42,7.52h4l-1.28-7.52c-.11-.55-.26-1.78-.46-3.67a17.11,17.11,0,0,0-.18-1.77h-.06c-.08.68-.13,1.27-.17,1.77-.19,1.85-.35,3.07-.47,3.67"/>
    <path class="a" d="M227.1,29V23.81h4.71v26.5H226.9l-3.66-9.44a93.68,93.68,0,0,1-3.37-10.52h-.07q.36,4.73.51,7.55c.09,1.77.15,3.15.18,4.12s0,2.08,0,3.32v5h-4.71V23.81h4.88l3.66,9.65A95.72,95.72,0,0,1,227.74,44h.06c-.18-2.73-.34-5.23-.46-7.51-.09-1.74-.15-3.22-.19-4.45s-.05-2.22-.05-3"/>
    <rect class="a" x="236.75" y="23.81" width="4.71" height="26.5"/>
    <path class="a" d="M249.47,50.31h-5.06l6-26.5h6.35l5.72,26.5h-5l-1.25-6.69H250.7Zm3.38-18.12-1.41,7.52h4l-1.28-7.52c-.11-.55-.27-1.78-.46-3.67q-.06-.9-.18-1.77h-.07c-.08.68-.13,1.27-.16,1.77-.2,1.85-.36,3.07-.48,3.67"/>
    <polygon class="a" points="92.51 59.08 92.51 57.15 100.26 57.15 100.26 59.08 97.55 59.08 97.55 70.23 95.22 70.23 95.22 59.08 92.51 59.08"/>
    <polygon class="a" points="104.15 70.24 101.83 70.24 101.83 57.15 104.15 57.15 104.15 62.33 107.41 62.33 107.41 57.15 109.73 57.15 109.73 70.24 107.41 70.24 107.41 64.26 104.15 64.26 104.15 70.24"/>
    <path class="a" d="M113.66,70.24h-2.5l3-13.09h3.14l2.83,13.09h-2.49L117,66.93h-2.72Zm1.67-8.95-.7,3.71h2L116,61.29c0-.28-.13-.88-.22-1.81,0-.3,0-.6-.09-.88h0c0,.34-.06.63-.08.88-.09.91-.17,1.51-.23,1.81"/>
    <path class="a" d="M127.11,59.72V57.15h2.33V70.24H127l-1.8-4.67a45.79,45.79,0,0,1-1.67-5.19h0c.12,1.56.2,2.8.25,3.73s.07,1.55.09,2,0,1,0,1.64v2.46h-2.32V57.15H124l1.81,4.76a48,48,0,0,1,1.66,5.2h0c-.09-1.35-.17-2.59-.23-3.71,0-.86-.07-1.6-.09-2.2s0-1.1,0-1.48"/>
    <polygon class="a" points="138.34 70.24 131.8 70.24 131.8 57.15 138.34 57.15 138.34 59.08 134.13 59.08 134.13 62.36 138.01 62.36 138.01 64.29 134.13 64.29 134.13 68.32 138.34 68.32 138.34 70.24"/>
    <path class="a" d="M146.82,56.84h1.34a15,15,0,0,0-.89,2.25,16.28,16.28,0,0,0-.51,2.7,37.89,37.89,0,0,0-.17,3.85,25.26,25.26,0,0,0,.14,2.9,13.91,13.91,0,0,0,.48,2.46,22.93,22.93,0,0,0,1,2.69h-1.37c-.48-.85-.86-1.6-1.16-2.23a15.26,15.26,0,0,1-.73-1.95,13.43,13.43,0,0,1-.42-2.08,20.67,20.67,0,0,1-.13-2.5,17.48,17.48,0,0,1,.14-2.18,14.35,14.35,0,0,1,.44-2.09,13.58,13.58,0,0,1,.76-1.95,14,14,0,0,1,1.1-1.87"/>
    <path class="a" d="M157.12,57.15l1.24,6.76c.06.29.11.61.15.94s.08.76.13,1.27.1,1,.14,1.4.07.77.1,1h0c0-.2,0-.36.05-.5l0-.42c.1-1.28.21-2.4.35-3.36l.94-7.14h2.4l-2.31,13.09h-2.79l-.93-5.17c-.08-.46-.13-.86-.18-1.2s-.07-.67-.1-1-.07-.6-.09-.88-.07-.65-.13-1.11h0c0,.35-.08.72-.12,1.13s-.07.74-.1,1-.07.6-.11.93-.1.69-.17,1.07l-.83,5.17H152l-2.38-13.09H152l1.05,7.14c.13.88.25,2,.35,3.36,0,.2,0,.51.06.92h0c0-.28.07-.66.11-1.14s.1-1,.15-1.4.09-.85.14-1.21.09-.66.13-.91l1.13-6.76Z"/>
    <path class="a" d="M165.47,73.69h-1.34a13.5,13.5,0,0,0,.88-2.24,15.68,15.68,0,0,0,.52-2.72,34.78,34.78,0,0,0,.18-3.85c0-.79,0-1.53-.08-2.22a18.22,18.22,0,0,0-.26-1.94,15.26,15.26,0,0,0-.49-1.84,21,21,0,0,0-.79-2h1.38c.47.83.85,1.58,1.16,2.25a14,14,0,0,1,.73,1.92,11.82,11.82,0,0,1,.4,2.05,21.28,21.28,0,0,1,.14,2.53,16.66,16.66,0,0,1-.14,2.21,12.36,12.36,0,0,1-.43,2,12.38,12.38,0,0,1-1.86,3.85"/>
  </g>
</svg>